<svg width="117" height="57" viewBox="0 0 117 57" fill="none" xmlns="http://www.w3.org/2000/svg">
<g clip-path="url(#clip0_333_264)">
<path fill-rule="evenodd" clip-rule="evenodd" d="M26.235 48.7423C28.4636 47.3623 30.3367 45.6784 31.9214 43.9248C33.0561 46.2364 35.333 47.8143 37.7474 47.8143C39.608 47.8143 41.4686 46.8862 42.7478 45.1461C43.2129 46.7702 44.3758 47.8143 46.3527 47.8143C47.8362 47.8143 51.0703 46.3039 54.0028 44.0658L53.6786 45.7261C53.5623 46.1901 53.5623 46.5381 53.5623 46.7702C53.6786 47.4662 54.1437 47.8142 54.8415 47.8142C56.2369 47.8142 58.2138 46.5381 58.6789 44.45L59.3766 41.5497C60.1907 37.8374 65.6561 32.269 67.1679 32.269C67.2841 32.269 67.5167 32.385 67.5167 32.617C67.5629 32.9853 67.2976 33.6826 66.91 34.7016C66.3209 36.25 65.4493 38.5412 64.9584 41.5497C64.7258 42.4778 64.7258 43.4059 64.8421 44.1019C65.0747 46.3061 66.3538 47.8142 68.7959 47.8142C70.8857 47.8142 75.4166 46.0346 78.5922 42.4753C78.8316 44.4073 79.2412 46.0506 79.8432 47.1183C80.0757 47.5823 80.6572 47.6983 81.2386 47.6983C81.9363 47.6983 82.8666 47.4663 83.9132 46.8862C86.3552 45.6101 89.495 42.5939 92.5184 38.1855C92.9836 38.3015 93.3324 38.3015 93.6813 38.3015C94.8879 38.3015 96.2365 37.8767 97.4885 37.125C96.9682 38.6926 96.7653 40.2937 96.9374 41.7817C97.4025 45.262 100.31 47.9303 103.449 47.9303C105.194 47.9303 107.054 46.8862 108.333 45.262C108.799 47.4662 110.194 49.7864 113.683 51.1785C113.915 51.2945 114.148 51.2945 114.38 51.2945C115.078 51.2945 115.543 50.8305 115.427 50.2505C115.427 50.0184 115.311 49.6704 114.962 49.4384C114.148 48.7423 113.217 47.4662 112.985 45.4941C112.869 44.566 112.869 43.4059 113.45 42.2458C114.148 39.1135 114.264 38.1854 114.264 37.8374C114.148 37.0254 113.566 36.6773 112.869 36.6773C111.473 36.6773 109.496 38.0694 109.031 40.0416C108.217 43.0578 106.124 45.03 104.729 45.03C102.984 45.03 102.054 43.1739 101.821 41.2017C101.24 36.3293 104.263 30.4128 108.799 30.4128C110.078 30.4128 111.589 30.8768 111.706 32.269C111.849 33.552 111.07 33.8715 110.475 34.1155C110.101 34.2687 109.8 34.3921 109.845 34.7052C109.961 35.6332 111.473 35.8653 112.52 35.8653C113.45 35.8653 116.474 35.1692 116.008 31.8049C115.66 29.1367 112.752 27.8606 109.496 27.8606C105.609 27.8606 102.301 29.824 100.049 32.5408C99.737 32.7242 99.4083 33.0522 99.0305 33.4291C98.3328 34.2412 96.9373 35.0532 95.193 35.0532C94.9604 35.0532 94.4953 34.9372 94.4953 34.9372C95.6582 32.7331 96.4722 30.4129 96.4722 28.4407C96.4722 25.1924 94.4953 23.5683 92.2858 23.5683C89.495 23.5683 86.5878 26.0045 86.5878 30.8769C86.5878 33.7771 87.7507 36.0973 89.7275 37.3734C87.4018 41.0857 84.2621 44.218 83.7969 44.218C83.6363 44.218 83.5866 44.0521 83.533 43.873C83.5089 43.7927 83.4841 43.7098 83.4481 43.638C83.0992 42.3619 82.7503 39.8096 82.7503 38.3015C82.7503 35.5173 83.2155 32.7331 84.2621 29.8328C84.3783 29.4848 84.4946 29.1368 84.4946 28.9047C84.4946 28.0927 83.9132 27.7446 83.2155 27.7446C81.82 27.7446 79.6106 29.3688 79.0292 31.1089C78.564 32.7331 78.3314 35.0532 78.3314 37.8375C78.3314 38.3481 78.3397 38.8545 78.3565 39.3533C75.5813 43.0854 72.1568 44.334 71.1216 44.334C69.8424 44.334 69.6099 43.1739 69.8424 42.7098C70.6565 39.3455 71.703 35.5172 72.6333 32.849C73.0985 31.5729 73.331 30.4128 73.2148 29.7167C72.9822 28.4406 72.1682 27.8606 71.0053 27.8606C68.2144 27.8606 63.7955 30.6448 60.8884 34.4731L61.8187 30.2968C61.9349 29.8328 61.9349 29.4847 61.9349 29.2527C61.8187 28.4406 61.3535 28.0926 60.6558 28.0926C57.3998 28.0926 56.8183 29.7167 56.4695 31.3409C56.4021 31.744 55.4767 36.5053 54.7097 40.4414C52.2282 42.7133 49.4478 44.218 48.6784 44.218C47.7481 44.218 47.3992 43.5219 47.3992 42.9419C47.3992 42.5413 47.6304 41.4489 47.8487 40.4168C48.0098 39.6558 48.1639 38.9274 48.2132 38.5335C48.3295 38.0695 48.3295 37.7215 48.3295 37.4894C48.2132 36.7934 47.6318 36.4454 46.9341 36.4454C45.5387 36.4454 43.5618 37.8375 43.0966 39.8096C42.3989 42.8259 40.3057 44.7981 38.9103 44.7981C37.166 44.7981 36.2357 42.9419 36.0031 41.0857C35.4217 36.9094 38.0963 30.1808 42.9803 30.1808C44.3758 30.1808 45.7712 30.6449 45.8875 32.037C46.0283 33.3716 45.3165 33.6855 44.7588 33.9314C44.3953 34.0917 44.0973 34.2231 44.1432 34.5892C44.2595 35.5173 45.7712 35.7493 46.7015 35.7493C47.7481 35.7493 50.6553 35.0532 50.1901 31.689C49.8413 29.0207 47.0504 27.6286 43.6781 27.6286C35.8568 27.6286 30.6521 35.3462 31.2147 41.464C29.2285 43.7828 27.244 45.1771 23.6767 47.0022C21.6998 48.0463 19.3741 48.6263 17.2809 48.6263C10.7689 48.6263 7.62912 42.7098 7.04769 37.6054C5.41967 24.6123 17.0483 6.63083 25.0721 6.63083C26.9327 6.63083 28.5607 8.25496 28.9096 10.8072C29.3747 14.7515 29.2584 17.5357 25.1884 20.9C24.7233 21.248 24.607 21.8281 24.8396 22.1761C25.1884 22.6402 26.3513 22.7562 28.5607 21.5961C32.9796 19.3919 34.4913 16.0276 34.0262 12.0833C33.5611 7.67491 29.7236 4.07861 24.607 4.07861C22.0487 4.07861 19.3741 4.77467 16.9321 6.2828C6.34997 12.7793 -0.510947 27.3965 0.768207 38.5335C1.23335 42.1298 2.74508 45.9581 5.53596 48.6263C7.39655 50.3665 10.7689 52.4546 14.8389 52.4546C19.2578 52.4546 22.979 50.8305 26.235 48.7423ZM91.5881 33.4291C90.4253 32.153 89.495 30.1808 89.495 28.3247C89.495 27.2806 89.8438 26.1205 90.6578 26.1205C91.3556 26.1205 92.2858 27.1646 92.2858 29.6008C92.2858 30.8769 92.0533 32.153 91.5881 33.4291Z" fill="#868686"/>
</g>
<defs>
<clipPath id="clip0_333_264">
<rect width="116.287" height="55.6846" fill="white" transform="translate(0.1875 0.482422)"/>
</clipPath>
</defs>
</svg>
