<svg width="132" height="57" viewBox="0 0 132 57" fill="none" xmlns="http://www.w3.org/2000/svg">
<g clip-path="url(#clip0_333_104)">
<path fill-rule="evenodd" clip-rule="evenodd" d="M130.373 36.2466C124.957 45.4082 116.378 42.7498 113.802 40.6684C112.705 41.4106 110.783 43.0374 108.219 42.8495C102.759 42.4497 100.804 34.6658 100.804 34.6658C100.843 34.6969 99.1773 35.2392 98.2771 35.2295C98.2655 37.5122 96.2876 42.9651 90.9496 42.8953C84.9596 42.8174 83.7419 33.9146 83.7419 33.9146C83.7419 33.9146 83.1458 34.7403 80.8793 35.5628C80.9934 33.8091 80.91 42.6283 73.7307 42.758C68.055 42.8606 66.5229 33.7773 66.5229 33.7773C66.5229 33.7773 65.5383 34.7976 63.6301 35.1515C63.7514 33.3693 63.5542 42.7879 56.3741 42.758C51.5218 42.7379 49.8637 37.1627 49.9927 36.3889C50.1572 35.4027 48.3528 42.8967 43.6395 42.7799C41.6945 42.7229 40.2445 41.318 39.3346 39.4451C38.1165 40.8355 36.348 42.7799 34.3641 42.7799C30.803 42.7799 29.233 39.8085 29.4989 31.3215C29.5216 30.3149 29.4488 29.919 28.4457 29.7684C27.8437 29.6682 27.2271 29.4785 26.5748 29.3784C26.3657 30.0745 24.5922 42.5535 18.4941 42.7903C16.4483 42.8698 15.3296 41.1018 14.411 39.7896C13.0027 41.6481 11.1437 42.8495 8.49548 42.8495C4.00954 42.8495 0.953125 39.2317 0.953125 34.7689C0.953125 30.3059 4.00954 26.6884 8.49548 26.6884C9.28864 26.6884 9.5113 26.8019 10.2359 27.0128C8.74573 13.4776 12.2649 11.3622 15.3434 11.3622C18.299 11.3622 23.3482 18.2056 16.2435 35.5642C17.8209 40.7417 21.2214 40.4489 22.8555 29.7905C23.1881 27.624 22.2988 24.7004 23.682 24.2923C26.2104 23.5466 26.4787 25.784 27.6643 26.1568C28.9178 26.5508 29.6495 26.5123 30.8529 26.7631C32.9093 27.1637 33.7118 28.2657 33.4612 30.7202C33.1604 33.8259 32.634 38.3462 34.2388 38.8972C35.396 39.2974 37.5088 36.9032 37.8796 35.5933C38.2502 34.2833 38.3276 33.8349 38.3605 32.8741C38.4107 30.8206 38.4736 29.3153 38.8246 27.7623C38.9749 27.1614 39.1461 26.7634 39.8276 26.7362C40.3884 26.7219 41.414 26.5535 41.8654 26.904C42.4671 27.355 42.3919 27.8127 42.3228 29.0172C41.6231 46.1909 47.0092 37.6177 48.6151 30.7531C48.0432 22.9908 48.4358 11.5043 53.3116 11.3117C55.8474 11.2115 56.9685 13.2381 57.0918 14.7508C57.4406 19.0232 55.4869 26.1002 52.9175 30.8596C51.449 40.5707 59.338 42.4909 60.5996 34.7395C58.5355 33.7604 56.3049 29.7977 58.1201 27.8665C59.1386 26.7827 63.3784 28.3397 63.4478 31.7355C65.5276 31.1806 65.8052 30.0092 65.834 30.2033C65.2623 22.4411 65.7926 11.5044 70.6687 11.3118C73.2042 11.2116 74.3251 13.2382 74.4484 14.7509C74.7972 19.0232 72.8435 26.1004 70.2744 30.8597C68.8058 40.5707 76.6949 42.491 77.9562 34.7396C76.428 34.4454 73.2021 30.2305 75.0634 27.8666C76.0581 26.6034 80.2823 29.2304 80.7553 31.848C82.7532 31.2839 83.0245 30.1497 83.0532 30.3406C82.4813 22.5786 83.0116 11.642 87.8877 11.4493C90.4231 11.3492 91.544 13.3758 91.6673 14.8885C92.0161 19.1608 90.0624 26.2381 87.493 30.9974C86.0247 40.7086 93.9137 42.6283 95.1753 34.8769C93.0752 34.5281 90.0907 30.0778 92.4928 27.8011C93.4525 26.8914 97.1196 29.2527 97.978 31.9467C99.1707 31.9009 99.9131 31.4905 100.072 31.4491C98.1682 22.3367 99.5856 11.4032 104.831 11.3119C107.666 11.2626 110.438 12.841 109.221 21.5102C108.06 29.7817 103.886 33.2529 103.895 33.306C104.138 34.2969 106.28 42.5899 111.674 38.2142C111.395 37.5835 111.115 36.9391 110.959 36.1585C110.065 31.6113 111.821 26.4752 116.594 25.6451C119.329 25.1695 121.905 26.4977 122.312 29.4921C122.982 34.3918 118.547 37.9403 116.861 38.71C116.105 38.2819 123.708 43.1461 128.22 33.3982C128.481 32.8416 128.797 32.8888 129.205 33.1756C129.494 33.3783 131.138 34.9317 130.373 36.2466ZM11.7586 33.5649C11.529 32.8803 11.0579 31.3716 10.8913 30.7178C9.97381 29.9219 9.31891 29.7926 8.1412 29.7926C5.52397 29.7926 3.98351 32.2066 3.98351 34.8097C3.98351 37.4126 5.66173 39.827 8.27898 39.827C10.5471 39.827 12.2734 38.2886 12.8001 36.1107C12.4314 35.2616 12.0657 34.4813 11.7586 33.5649ZM15.2793 14.9451C13.4403 14.9451 12.8164 19.3216 12.9375 23.0552C13.0446 26.3561 13.9692 29.2622 14.4488 30.5644C14.5706 30.7275 14.548 30.6214 14.6567 30.7944C17.8498 23.8148 16.5254 14.9451 15.2793 14.9451ZM53.5743 15.0825C51.1974 14.8106 51.2128 24.6883 51.5079 26.904C52.7423 24.9339 54.8867 15.613 53.5743 15.0825ZM70.9309 15.0825C68.554 14.8106 68.5694 24.6883 68.8646 26.904C70.0989 24.9339 72.2435 15.613 70.9309 15.0825ZM88.15 15.22C85.773 14.948 85.7883 24.8258 86.0836 27.0416C87.3179 25.0714 89.4624 15.7504 88.15 15.22ZM105.093 14.5043C101.39 15.2462 102.252 27.564 102.815 29.7244C107.177 23.7473 107.267 14.2798 105.093 14.5043ZM118.972 29.8974C118.784 29.112 117.842 28.6922 117.193 28.7957C115.333 29.049 113.53 31.3593 114.228 34.8766C114.383 35.66 114.772 36.381 114.766 36.357C118.927 33.5719 119.281 31.3772 118.972 29.8974ZM40.5566 24.0174C40.0251 24.0175 39.5056 23.8604 39.0637 23.5659C38.6218 23.2714 38.2773 22.8528 38.0738 22.363C37.8704 21.8732 37.8172 21.3342 37.9209 20.8142C38.0244 20.2942 38.2804 19.8166 38.6561 19.4417C39.0318 19.0667 39.5106 18.8114 40.0318 18.708C40.553 18.6045 41.0933 18.6576 41.5843 18.8605C42.0754 19.0634 42.4949 19.407 42.7902 19.8478C43.0854 20.2886 43.243 20.8069 43.243 21.3371C43.243 21.6891 43.1736 22.0376 43.0385 22.3628C42.9036 22.6879 42.7057 22.9834 42.4562 23.2323C42.2067 23.4812 41.9106 23.6786 41.5847 23.8133C41.2588 23.9481 40.9095 24.0174 40.5566 24.0174Z" fill="#868686"/>
</g>
<defs>
<clipPath id="clip0_333_104">
<rect width="130.241" height="55.6846" fill="white" transform="translate(0.953125 0.790527)"/>
</clipPath>
</defs>
</svg>
