<svg width="158" height="57" viewBox="0 0 158 57" fill="none" xmlns="http://www.w3.org/2000/svg">
<g clip-path="url(#clip0_333_396)">
<path fill-rule="evenodd" clip-rule="evenodd" d="M20.3879 6.61914C9.18941 6.61914 0.119141 15.6678 0.119141 26.8396C0.119141 35.7872 5.92108 43.3446 13.9779 46.0238C14.9914 46.2007 15.3714 45.5941 15.3714 45.0633C15.3714 44.5831 15.3461 42.9907 15.3461 41.2973C10.2535 42.2325 8.93606 40.0588 8.53068 38.9214C8.30266 38.34 7.31455 36.5454 6.45313 36.0652C5.74372 35.6861 4.73029 34.7509 6.4278 34.7256C8.02396 34.7003 9.16408 36.1916 9.54412 36.7982C11.3683 39.8565 14.2819 38.9972 15.4474 38.4664C15.6248 37.1521 16.1568 36.2674 16.7395 35.7619C12.2297 35.2564 7.51724 33.5124 7.51724 25.778C7.51724 23.5791 8.30266 21.7592 9.59479 20.3438C9.3921 19.8383 8.6827 17.7657 9.79748 14.9854C9.79748 14.9854 11.495 14.4546 15.3714 17.058C16.9929 16.603 18.7157 16.3755 20.4386 16.3755C22.1614 16.3755 23.8843 16.603 25.5058 17.058C29.3822 14.4293 31.0797 14.9854 31.0797 14.9854C32.1945 17.7657 31.4851 19.8383 31.2824 20.3438C32.5745 21.7592 33.3599 23.5538 33.3599 25.778C33.3599 33.5376 28.6221 35.2564 24.1123 35.7619C24.847 36.3938 25.4804 37.607 25.4804 39.5027C25.4804 42.2072 25.4551 44.3809 25.4551 45.0633C25.4551 45.5941 25.8351 46.226 26.8486 46.0238C30.8723 44.6687 34.3687 42.0888 36.8457 38.6474C39.3227 35.206 40.6556 31.0763 40.6567 26.8396C40.6567 15.6678 31.5864 6.61914 20.3879 6.61914Z" fill="#868686"/>
<path d="M94.6088 36.5995H94.5615C94.5828 36.5995 94.5969 36.6231 94.6182 36.6255H94.6324L94.6088 36.6019V36.5995ZM94.6182 36.6255C94.3983 36.6278 93.845 36.7434 93.2609 36.7434C91.4164 36.7434 90.778 35.8942 90.778 34.7854V27.3992H94.5378C94.7506 27.3992 94.9162 27.2105 94.9162 26.951V22.9406C94.9162 22.7283 94.727 22.5396 94.5378 22.5396H90.778V17.562C90.778 17.3732 90.6597 17.2553 90.4469 17.2553H85.3392C85.1264 17.2553 85.0081 17.3732 85.0081 17.562V22.6811C85.0081 22.6811 82.4306 23.318 82.2651 23.3416C82.0759 23.3888 81.9577 23.554 81.9577 23.7427V26.951C81.9577 27.2105 82.1469 27.3992 82.3597 27.3992H84.9845V35.1369C84.9845 40.893 89.0045 41.4828 91.7475 41.4828C93.0008 41.4828 94.5142 41.0817 94.7506 40.9638C94.8925 40.9166 94.9635 40.7515 94.9635 40.5863V37.0478C94.9667 36.9474 94.9336 36.8492 94.8702 36.7712C94.8068 36.6932 94.7173 36.6407 94.6182 36.6231V36.6255ZM150.652 31.4332C150.652 27.1633 148.926 26.5971 147.105 26.7859C145.686 26.8802 144.551 27.5879 144.551 27.5879V35.8918C144.551 35.8918 145.71 36.6939 147.436 36.7411C149.872 36.8118 150.652 35.939 150.652 31.4332ZM156.398 31.0557C156.398 39.1473 153.773 41.4592 149.186 41.4592C145.308 41.4592 143.227 39.5012 143.227 39.5012C143.227 39.5012 143.132 40.5863 143.014 40.7279C142.943 40.8694 142.825 40.9166 142.683 40.9166H139.183C138.947 40.9166 138.734 40.7279 138.734 40.5156L138.781 14.3065C138.781 14.0941 138.97 13.9054 139.183 13.9054H144.22C144.433 13.9054 144.622 14.0941 144.622 14.3065V23.2001C144.622 23.2001 146.561 21.9498 149.399 21.9498L149.375 21.9026C152.213 21.9026 156.398 22.9642 156.398 31.0557ZM135.778 22.5396H130.812C130.552 22.5396 130.41 22.7283 130.41 22.9878V35.821C130.41 35.821 129.11 36.7411 127.336 36.7411C125.563 36.7411 125.042 35.939 125.042 34.1697V22.9642C125.042 22.7519 124.853 22.5632 124.64 22.5632H119.58C119.367 22.5632 119.178 22.7519 119.178 22.9642V35.019C119.178 40.2089 122.086 41.5064 126.083 41.5064C129.37 41.5064 132.042 39.6899 132.042 39.6899C132.042 39.6899 132.16 40.6099 132.231 40.7515C132.278 40.8694 132.444 40.9638 132.609 40.9638H135.778C136.038 40.9638 136.18 40.7751 136.18 40.5627L136.227 22.9406C136.227 22.7283 136.038 22.5396 135.778 22.5396ZM79.7349 22.516H74.6981C74.4853 22.516 74.2961 22.7283 74.2961 22.9878V40.3032C74.2961 40.7751 74.6035 40.9402 75.0055 40.9402H79.5457C80.0186 40.9402 80.1369 40.7279 80.1369 40.3032V22.917C80.1369 22.7047 79.9477 22.516 79.7349 22.516ZM77.2519 14.5424C75.4311 14.5424 73.9887 15.9814 73.9887 17.7979C73.9887 19.6143 75.4311 21.0534 77.2519 21.0534C79.0255 21.0534 80.4679 19.6143 80.4679 17.7979C80.4679 15.9814 79.0255 14.5424 77.2519 14.5424ZM116.246 13.9526H111.256C111.043 13.9526 110.854 14.1413 110.854 14.3536V24.0022H103.027V14.3536C103.027 14.1413 102.838 13.9526 102.625 13.9526H97.5883C97.3755 13.9526 97.1863 14.1413 97.1863 14.3536V40.5627C97.1863 40.7751 97.3991 40.9638 97.5883 40.9638H102.625C102.838 40.9638 103.027 40.7751 103.027 40.5627V29.3572H110.854L110.807 40.5627C110.807 40.7751 110.996 40.9638 111.209 40.9638H116.246C116.459 40.9638 116.648 40.7751 116.648 40.5627V14.3536C116.648 14.1413 116.459 13.9526 116.246 13.9526ZM71.624 25.5592V39.1001C71.624 39.1945 71.6003 39.3596 71.4821 39.4068C71.4821 39.4068 68.5262 41.5064 63.655 41.5064C57.7669 41.5064 50.7911 39.6663 50.7911 27.5408C50.7911 15.4152 56.892 12.9146 62.851 12.9382C68.006 12.9382 70.0869 14.0941 70.418 14.3065C70.5126 14.4244 70.5599 14.5188 70.5599 14.6367L69.5667 18.8358C69.5667 19.0482 69.3539 19.3077 69.0938 19.2369C68.2425 18.9774 66.9655 18.4584 63.9624 18.4584C60.4863 18.4584 56.7501 19.4492 56.7501 27.2577C56.7501 35.0661 60.2971 35.9862 62.851 35.9862C65.0265 35.9862 65.8068 35.7267 65.8068 35.7267V30.3009H62.3308C62.0706 30.3009 61.8815 30.1121 61.8815 29.8998V25.5592C61.8815 25.3468 62.0706 25.1581 62.3308 25.1581H71.1747C71.4348 25.1581 71.624 25.3468 71.624 25.5592Z" fill="#868686"/>
</g>
<defs>
<clipPath id="clip0_333_396">
<rect width="156.987" height="55.6846" fill="white" transform="translate(0.119141 0.818848)"/>
</clipPath>
</defs>
</svg>
