<svg width="159" height="57" viewBox="0 0 159 57" fill="none" xmlns="http://www.w3.org/2000/svg">
<g clip-path="url(#clip0_333_193)">
<path d="M115.239 17.1096H112.131V40.3184H124.738V37.4363H115.239V17.1096ZM136.737 36.248C135.954 37.057 134.641 37.8661 132.872 37.8661C130.497 37.8661 129.537 36.7031 129.537 35.1609C129.537 32.8602 131.129 31.7478 134.539 31.7478C135.171 31.7478 136.207 31.8237 136.737 31.9248V36.248ZM133.529 22.1913C131.003 22.1913 128.704 23.0761 126.91 24.5678L128.022 26.4892C129.285 25.756 130.851 24.9976 133.099 24.9976C135.651 24.9976 136.788 26.3122 136.788 28.5117V29.6494C136.283 29.5483 135.272 29.4725 134.615 29.4725C129.158 29.4725 126.405 31.3939 126.405 35.3884C126.405 38.9785 128.603 40.7735 131.937 40.7735C134.186 40.7735 136.333 39.7369 137.066 38.0683L137.621 40.3437H139.819V28.4612C139.794 24.6942 138.152 22.1913 133.529 22.1913ZM149.849 37.9925C148.687 37.9925 147.651 37.8408 146.868 37.4868V26.7673C147.929 25.8824 149.242 25.2504 150.91 25.2504C153.916 25.2504 155.078 27.3741 155.078 30.8124C155.103 35.6918 153.209 37.9925 149.849 37.9925ZM151.162 22.1913C148.383 22.1913 146.868 24.0874 146.868 24.0874V21.0789V17.1096H143.811V39.7622C145.327 40.3943 147.423 40.7482 149.697 40.7482C155.507 40.7482 158.312 37.0318 158.312 30.6102C158.312 25.5538 155.735 22.1913 151.162 22.1913ZM81.3363 19.6378C84.0899 19.6378 85.8836 20.5479 87.0456 21.4834L88.3846 19.1574C86.5656 17.5647 84.0899 16.7051 81.4879 16.7051C74.869 16.7051 70.2207 20.7502 70.2207 28.891C70.2207 37.4363 75.2227 40.7735 80.9573 40.7735C83.8373 40.7735 86.2625 40.0909 87.854 39.4336L87.7783 30.3068V27.3993H79.2647V30.2815H84.6962L84.772 37.2087C84.0646 37.5627 82.8268 37.8408 81.1594 37.8408C76.5616 37.8408 73.4796 34.9334 73.4796 28.8404C73.4796 22.6463 76.6627 19.6378 81.3363 19.6378ZM103.264 17.1096H100.207V21.003V34.4783C100.207 38.2453 101.85 40.7482 106.473 40.7482C107.104 40.7482 107.736 40.6977 108.342 40.5712V37.8408C107.913 37.9166 107.433 37.9419 106.927 37.9419C104.376 37.9419 103.239 36.6273 103.239 34.4277V25.1492H108.342V22.6211H103.239L103.264 17.1096ZM92.4771 40.3184H95.5339V22.6211H92.4771V40.3184ZM92.4771 20.1687H95.5339V17.1096H92.4771V20.1687Z" fill="#868686"/>
<path d="M28.462 54.1726L38.6681 22.7725H18.2559L28.462 54.1726Z" fill="#868686"/>
<path d="M28.46 54.1726L18.2539 22.7725H3.98047L28.46 54.1726Z" fill="#868686"/>
<path d="M3.9826 22.7725L0.875291 32.3038C0.597402 33.1633 0.900554 34.1241 1.63317 34.655L28.4368 54.1474L3.9826 22.7725Z" fill="#868686"/>
<path d="M3.98047 22.7729H18.2791L12.115 3.86206C11.8119 2.87606 10.4224 2.87606 10.1193 3.86206L3.98047 22.7729Z" fill="#868686"/>
<path d="M28.4609 54.1726L38.6671 22.7725H52.9657L28.4609 54.1726Z" fill="#868686"/>
<path d="M52.9406 22.7725L56.0479 32.3038C56.3258 33.1633 56.0226 34.1241 55.29 34.655L28.4863 54.1474L52.9406 22.7725Z" fill="#868686"/>
<path d="M52.9413 22.7725H38.6426L44.7814 3.86165C45.1098 2.90093 46.474 2.90093 46.7772 3.86165L52.9413 22.7725Z" fill="#868686"/>
</g>
<defs>
<clipPath id="clip0_333_193">
<rect width="158.15" height="55.6846" fill="white" transform="translate(0.773438 0.808594)"/>
</clipPath>
</defs>
</svg>
