<svg width="173" height="57" viewBox="0 0 173 57" fill="none" xmlns="http://www.w3.org/2000/svg">
<path d="M102.582 18.2206C99.0576 18.2206 95.6128 21.4041 95.2166 26.004V18.5998H90.156V40.9253H95.2787V30.1189C95.2787 27.0917 97.4294 22.8216 102.582 22.8216V18.2206Z" fill="#868686"/>
<path d="M156.315 37.3512V22.0556H159.283C163.239 22.0556 166.454 24.5226 166.454 29.5801C166.454 34.6375 163.239 37.3512 159.283 37.3512H156.315ZM151.245 40.9285H159.901C165.218 40.9285 171.771 37.4746 171.771 29.5801C171.771 21.8089 165.218 18.6017 159.901 18.6017H151.245V40.9285Z" fill="#868686"/>
<path d="M131.848 29.827C131.848 25.7564 133.95 22.4259 137.412 22.4259C140.751 22.4259 142.605 25.7564 142.605 29.827C142.605 33.8977 140.751 37.2281 137.412 37.2281C133.95 37.2281 131.848 33.8977 131.848 29.827ZM126.655 30.0737C126.655 36.7347 130.117 41.4221 135.557 41.4221C139.514 41.4221 141.863 38.8317 143.1 34.6377V40.9287H148.168V18.602H143.1V24.5229C141.987 20.5756 139.638 18.2319 135.929 18.2319C130.364 18.2319 126.655 23.2894 126.655 30.0737Z" fill="#868686"/>
<path d="M11.2127 41.4221C4.90666 41.4221 1.19727 36.3647 1.19727 30.0737C1.19727 23.5361 5.27761 18.2319 13.0673 18.2319C21.1044 18.2319 23.8246 23.6594 23.9482 26.7432H18.1369C18.0132 25.0163 16.5294 22.4259 12.9437 22.4259C9.11064 22.4259 6.63772 25.7564 6.63772 29.827C6.63772 33.8977 9.11064 37.2281 12.9437 37.2281C16.4058 37.2281 17.8895 34.5144 18.5078 31.8007H12.9437V29.5803H24.619V40.9287H19.497V33.7743C19.126 36.3647 17.5186 41.4221 11.2127 41.4221Z" fill="#868686"/>
<path d="M35.0043 41.4219C30.1821 41.4219 27.2146 38.2147 27.2146 31.8004V18.6017H32.4077V31.8004C32.4077 35.1309 34.0151 36.7345 36.7353 36.7345C42.0522 36.7345 44.0305 30.1968 44.0305 25.6328V18.6017H49.2236V40.9285H44.1541V32.6638C43.1649 37.2279 40.4448 41.4219 35.0043 41.4219Z" fill="#868686"/>
<path d="M80.2565 18.2202C75.8258 18.2202 73.0308 22.49 72.1185 26.438C71.9625 21.1472 69.3545 18.2202 65.1815 18.2202C61.5763 18.2202 58.2315 21.4277 57.3628 26.5019V18.6H52.3004V40.9273H57.4277V32.9231C57.4277 30.9387 58.2569 22.7954 63.4185 22.7954C66.7621 22.7954 67.1107 25.8042 67.1107 29.9171V40.9273H72.2357V32.9231C72.2357 30.9387 73.0993 22.7954 78.2607 22.7954C81.6017 22.7954 81.9468 25.8042 81.9468 29.9171V40.9273H87.0787V27.7208C87.102 21.3851 84.8597 18.2202 80.2565 18.2202Z" fill="#868686"/>
<path d="M113.582 18.2202C106.944 18.2202 102.447 23.4125 102.447 29.8211C102.447 36.8826 106.724 41.422 113.582 41.422C120.22 41.422 124.797 36.2299 124.797 29.8211C124.797 22.7597 120.437 18.2202 113.582 18.2202ZM113.582 37.47C109.718 37.47 107.215 34.2063 107.215 29.8211C107.215 25.4359 109.726 22.1722 113.582 22.1722C117.437 22.1722 119.848 25.4359 119.848 29.8211C119.848 34.2063 117.435 37.47 113.582 37.47Z" fill="#868686"/>
</svg>
