<svg width="151" height="57" viewBox="0 0 151 57" fill="none" xmlns="http://www.w3.org/2000/svg">
<g clip-path="url(#clip0_333_88)">
<path d="M52.7425 41.1507V24.2654H53.044L65.3642 41.1507H69.2412V16.3544H64.9334V33.1971H64.6319L52.3117 16.3544H48.4347V41.1507H52.7425ZM81.4321 41.5335C87.1184 41.5335 90.6077 37.8757 90.6077 31.7511C90.6077 25.669 87.1184 21.9687 81.4321 21.9687C75.789 21.9687 72.2566 25.669 72.2566 31.7511C72.2997 37.8757 75.7459 41.5335 81.4321 41.5335ZM81.4321 37.9607C78.4167 37.9607 76.6936 35.7065 76.6936 31.7511C76.6936 27.8381 78.4167 25.5414 81.4321 25.5414C84.4476 25.5414 86.1707 27.8381 86.1707 31.7511C86.1707 35.7065 84.4476 37.9607 81.4321 37.9607ZM94.5277 17.758V22.479H91.5123V25.8816H94.5277V36.1319C94.5277 39.7896 96.2508 41.2357 100.645 41.2357C101.463 41.2357 102.282 41.1507 102.928 41.0231V37.7056C102.411 37.7481 102.066 37.7906 101.463 37.7906C99.654 37.7906 98.8355 36.9825 98.8355 35.1111V25.8816H102.928V22.479H98.8355V17.758H94.5277ZM105.513 41.1507H109.82V22.3514H105.513V41.1507ZM107.666 19.2466C109.088 19.2466 110.251 18.0982 110.251 16.6947C110.251 15.2486 109.088 14.1002 107.666 14.1002C106.245 14.1002 105.082 15.2486 105.082 16.6947C105.082 18.0982 106.245 19.2466 107.666 19.2466ZM121.624 41.5335C127.31 41.5335 130.799 37.8757 130.799 31.7511C130.799 25.669 127.31 21.9687 121.624 21.9687C115.98 21.9687 112.448 25.669 112.448 31.7511C112.448 37.8757 115.894 41.5335 121.624 41.5335ZM121.624 37.9607C118.608 37.9607 116.885 35.7065 116.885 31.7511C116.885 27.8381 118.608 25.5414 121.624 25.5414C124.596 25.5414 126.362 27.8381 126.362 31.7511C126.319 35.7065 124.596 37.9607 121.624 37.9607ZM133.341 41.1507H137.648V30.2199C137.648 27.4553 139.285 25.7115 141.827 25.7115C144.455 25.7115 145.661 27.1576 145.661 30.0072V41.1507H149.969V28.9865C149.969 24.4781 147.642 21.9687 143.421 21.9687C140.578 21.9687 138.682 23.2446 137.778 25.3712H137.476V22.3514H133.298C133.341 22.3514 133.341 41.1507 133.341 41.1507Z" fill="#868686"/>
<path fill-rule="evenodd" clip-rule="evenodd" d="M7.13064 14.7673C8.38442 15.7764 8.83792 15.6967 11.1854 15.5374L33.3 14.2097C33.7801 14.2097 33.38 13.7317 33.2199 13.6786L29.5386 11.0498C28.845 10.5187 27.8847 9.88142 26.0974 10.0407L4.70311 11.6074C3.92951 11.6871 3.76945 12.0854 4.08956 12.3775L7.13064 14.7673ZM8.46445 19.8923V43.0473C8.46445 44.2954 9.078 44.7468 10.4918 44.6671L34.7938 43.2597C36.2077 43.1801 36.3677 42.3304 36.3677 41.3213V18.3256C36.3677 17.3165 35.9676 16.7589 35.1139 16.8386L9.71823 18.3256C8.78456 18.4052 8.46445 18.8832 8.46445 19.8923ZM32.4463 21.1403C32.6064 21.8307 32.4463 22.5477 31.7527 22.6273L30.579 22.8663V39.9671C29.5653 40.4981 28.6316 40.8168 27.8313 40.8168C26.5776 40.8168 26.2574 40.4185 25.3238 39.2501L17.6677 27.2743V38.8518L20.0953 39.3829C20.0953 39.3829 20.0953 40.7902 18.1479 40.7902L12.7593 41.1089C12.5993 40.7902 12.7593 40.0202 13.2928 39.8608L14.7067 39.4625V24.1674L12.7593 24.0081C12.5993 23.3177 12.9994 22.3087 14.0931 22.229L19.8818 21.8307L27.858 33.9393V23.2381L25.8306 22.9991C25.6706 22.1494 26.3108 21.5121 27.0844 21.4324L32.4463 21.1403ZM2.91581 9.48311L25.1904 7.86331C27.9114 7.62433 28.6316 7.78365 30.3389 9.03169L37.4348 13.9973C38.6085 14.847 39.0086 15.086 39.0086 16.0154V43.2863C39.0086 44.9858 38.3951 45.9948 36.2076 46.1541L10.3585 47.7208C8.70454 47.8005 7.93093 47.5615 7.07729 46.4728L1.82209 39.7015C0.888424 38.4535 0.488281 37.5241 0.488281 36.4354V12.1916C0.488281 10.7842 1.12851 9.64243 2.91581 9.48311Z" fill="#868686"/>
</g>
<defs>
<clipPath id="clip0_333_88">
<rect width="150.01" height="55.6846" fill="white" transform="translate(0.488281 0.808594)"/>
</clipPath>
</defs>
</svg>
