<svg width="136" height="56" viewBox="0 0 136 56" fill="none" xmlns="http://www.w3.org/2000/svg">
<g clip-path="url(#clip0_333_208)">
<path d="M44.0646 24.9805C44.0646 22.5888 41.6673 20.0377 37.6716 20.0377C33.1965 20.0377 28.0821 23.386 27.283 30.0827C26.4838 36.7794 30.6393 39.8088 34.9546 39.8088C39.2699 39.8088 41.3476 38.2144 43.5852 35.9821C41.6673 33.5905 39.1101 34.7066 38.6306 34.866C38.1511 35.1849 37.352 35.5038 36.0734 35.5038C34.4751 35.5038 32.717 34.7066 32.717 31.6771C43.2655 30.561 44.0646 27.3721 44.0646 24.9805ZM38.9502 25.2994C38.9502 26.0966 38.6306 27.3721 33.3563 28.0099C34.4751 24.0238 36.5528 23.7049 37.5118 23.7049C38.4707 23.8644 38.9502 24.5021 38.9502 25.2994ZM21.2096 25.9371C21.2096 25.9371 18.972 32.9527 18.8122 33.5905C18.8122 32.9527 17.0541 20.3566 17.0541 20.3566C13.2183 20.3566 11.1406 23.0671 10.1817 25.9371C10.1817 25.9371 7.46462 32.9527 7.30479 33.5905C7.14497 33.1121 6.82532 26.0966 6.82532 26.0966C6.50567 22.5888 3.30916 20.3566 0.751953 20.3566L3.94846 39.4899C7.9441 39.4899 10.1817 36.7794 11.3004 33.9094C11.3004 33.9094 13.6978 27.691 13.8576 27.3721C13.8576 27.691 15.6157 39.4899 15.6157 39.4899C19.6113 39.4899 21.8489 36.9388 22.9677 34.2283L28.5616 20.3566C24.4061 20.3566 22.3284 23.0671 21.2096 25.9371ZM58.9284 19.8783C56.531 19.8783 54.6131 21.1538 53.0149 23.2266L54.2935 11.7466C50.9371 11.7466 48.3799 14.6166 47.7406 18.7621L45.1834 39.3305C47.1013 39.3305 49.0192 38.8521 50.138 37.4171C51.097 38.6927 52.5354 39.6494 54.6131 39.6494C60.207 39.6494 64.0428 33.2716 64.0428 27.2127C64.2026 21.6321 61.4856 19.8783 58.9284 19.8783ZM58.2891 29.7638C57.6498 33.1121 55.8917 35.3444 53.9738 35.3444C52.2157 35.3444 51.4166 34.5471 51.4166 34.5471C51.7363 31.6771 52.0559 29.7638 52.6952 28.1694C53.3345 26.5749 54.9328 24.1833 56.531 24.1833C58.1293 24.3427 58.9284 26.4155 58.2891 29.7638ZM78.1075 20.3566H74.2716V20.1971C74.5913 17.646 75.0708 16.3705 77.1485 16.211C78.4271 16.0516 79.0664 15.4138 79.2262 14.6166C79.386 13.9788 79.7057 11.906 79.7057 11.906C71.8743 11.906 69.4769 15.2544 68.8376 20.3566V20.516H68.6777C67.3991 20.516 65.9607 21.951 65.8009 23.7049L65.6411 24.3427H68.1983L65.9607 42.2005L65.3214 45.3894C65.4812 45.3894 65.4812 45.3894 65.6411 45.3894C69.317 45.2299 71.5546 42.3599 72.1939 38.2144L73.952 24.1833H75.2306C76.3494 24.1833 77.7878 23.0671 78.1075 20.9944V20.3566ZM98.2454 20.0377C93.7703 20.0377 89.6149 23.386 88.3363 28.4883C87.0577 33.5905 88.9756 39.8088 95.5284 39.8088C102.081 39.8088 105.917 33.431 105.917 28.1694C105.757 22.9077 102.241 20.0377 98.2454 20.0377ZM100.004 29.6044C99.8437 31.996 98.7249 35.5038 95.8481 35.5038C92.9712 35.5038 93.4507 31.3583 93.6105 29.4449C93.9302 27.3721 95.0489 24.3427 97.6061 24.3427C100.004 24.3427 100.323 27.0533 100.004 29.6044ZM127.973 25.9371C127.973 25.9371 125.735 32.9527 125.576 33.5905C125.576 32.9527 123.818 20.3566 123.818 20.3566C119.982 20.3566 117.904 23.0671 116.945 25.9371C116.945 25.9371 114.228 32.9527 114.068 33.5905C114.068 33.1121 113.589 26.0966 113.589 26.0966C113.429 22.5888 110.073 20.516 107.515 20.516L110.712 39.6494C114.707 39.6494 116.945 36.9388 118.064 34.0688C118.064 34.0688 120.461 27.8505 120.621 27.5316C120.621 27.8505 122.379 39.6494 122.379 39.6494C126.375 39.6494 128.612 37.0983 129.731 34.3877L135.005 20.3566C131.01 20.3566 128.932 23.0671 127.973 25.9371ZM81.7834 11.906L78.5869 38.0549L77.9476 41.2438C78.1074 41.2438 78.1074 41.2438 78.2673 41.2438C81.7834 41.2438 84.3406 38.0549 84.6603 34.2283L86.5782 19.2405C87.0577 14.776 84.1808 11.906 81.7834 11.906Z" fill="#868686"/>
</g>
<defs>
<clipPath id="clip0_333_208">
<rect width="134.893" height="55.6846" fill="white" transform="translate(0.751953 0.145508)"/>
</clipPath>
</defs>
</svg>
